# xmcd CD database file
#
# Track frame offsets:
#	150
#	15392
#	39681
#	59231
#	81139
#	94989
#	115206
#
# Disc length: 1748 seconds
#
# Revision: 0
# Processed by: cddbd v1.4PL0 Copyright (c) Steve Scherf et al.
# Submitted via: Feurio! 1.65 - http://www.feurio.com
#
DISCID=5906d207
DTITLE=Wacky Wheels - Wacky Wheels
DYEAR=1900
DGENRE=country
TTITLE0=Don't Let's Talk About Lisa
TTITLE1=Modern Day Bonnie and Clyde
TTITLE2=The Song I Never Wrote
TTITLE3=Padraig O'Keefe's - Cry Of The Celts
TTITLE4=That's My Story
TTITLE5=Goin Goin Gone
TTITLE6=Weekend Cowboy
EXTD=
EXTT0=
EXTT1=
EXTT2=
EXTT3=
EXTT4=
EXTT5=
EXTT6=
PLAYORDER=
